<?xml version="1.0" encoding="utf-8" ?>
<svg baseProfile="full" height="200mm" version="1.1" viewBox="0,0,200,200" width="200mm" xmlns="http://www.w3.org/2000/svg" xmlns:ev="http://www.w3.org/2001/xml-events" xmlns:xlink="http://www.w3.org/1999/xlink"><defs /><rect fill="#1a1a1a" height="200" width="200" x="0" y="0" /><text alignment-baseline="middle" fill="#e1ed5e" style="dominant-baseline: central; font-size:9.0px; font-family:Arial;" text-anchor="middle" x="100.0" y="100.0">2024</text><line stroke="#e1ed5e" stroke-width="0.3" x1="100.0" x2="100.0" y1="15.0" y2="10.0" /><path d="M 100.0 14.0 a86.0,86.0 0 0,1 42.35913384403234,11.155469271406648" fill="none" id="id13" stroke="none" /><text fill="#e1ed5e" style="font-size:6.75px; font-family:Arial;" text-anchor="middle"><textPath startOffset="22.145653131862478" xlink:href="#id13">January</textPath></text><path d="M 100.0 79.0 l 0.0 -63.0 a84.0,84.0 0 0,0 1.441971699395419,0.012377592777739643 l -1.0814787745465644 62.990716805416696" fill="#4dd2ff" stroke="none" /><path d="M 100.72087961077811 79.0123766808444 l 0.47368389443026426 -13.790789751873076 a34.798922364163445,34.798922364163445 0 0,0 0.5968416854487198,0.02563095002488191 l -0.7103513404798204 13.780626233422362" fill="#ff9f0e" stroke="none" /><path d="M 101.08105385017728 79.02784411241856 l 0.737982628236091 -14.316665834136147 a35.335673648834906,35.335673648834906 0 0,0 0.6055115111303506,0.03642606889187779 l -0.9836384914989039 14.301887787419577" fill="#ffa60f" stroke="none" /><path d="M 102.15924093988457 79.11130261209362 l 1.4530729029070144 -14.05716221415009 a35.13206391069937,35.13206391069937 0 0,0 0.5993598667557095,0.06715952321502484 l -1.6941686712635207 14.030146930428094" fill="#ffa30f" stroke="none" /><path d="M 102.51750503828377 79.15144685158666 l 0.39886016610112673 -3.3031343513867393 a24.327128788522216,24.327128788522216 0 0,0 0.4141660986483661,0.053622093364193456 l -0.4555040866402846 3.2958006618221485" fill="#ff0a01" stroke="none" /><path d="M 102.87502721639298 79.19773525538626 l 2.267573599731591 -16.40703297713259 a37.56298949896775,37.56298949896775 0 0,0 0.637989300600194,0.09376245682005906 l -2.5488880059394674 16.36568944701365" fill="#ffc412" stroke="none" /><path d="M 103.23170211078529 79.25015418208739 l 2.736759627302738 -17.57196002617351 a38.783802529804305,38.783802529804305 0 0,0 0.656965289380887,0.10810338836301268 l -3.0380024197366953 17.522390639314832" fill="#ffd313" stroke="none" /><path d="M 103.58742460773223 79.30868818359171 l 3.262352460099884 -18.816382053426526 a40.09709865802739,40.09709865802739 0 0,0 0.6771927704466177,0.12340708125345172 l -3.5848799640975555 18.757606798241707" fill="#ffe415" stroke="none" /><path d="M 104.29559338865022 79.4440306129975 l 6.4400759650814665 -30.81809482665747 a52.483798169548606,52.483798169548606 0 0,0 0.880322201613853,0.19186212652764031 l -6.968160583314454 30.703001241996112" fill="#86ff25" stroke="none" /><path d="M 104.9986988182912 79.60360301121754 l 3.8087527105133407 -15.541010798943844 a37.00092540644859,37.00092540644859 0 0,0 0.6156155944178646,0.15648707675496598 l -4.0749735981566 15.47333849035361" fill="#ffbc11" stroke="none" /><path d="M 105.3480935250658 79.69241777938227 l 4.52494069143682 -17.18193683489135 a38.767780999866496,38.767780999866496 0 0,0 0.6421026322021047,0.1750079277102601 l -4.819224724573617 17.101728413036945" fill="#ffd313" stroke="none" /><path d="M 105.69591212413111 79.78721728523813 l 5.238797142883484 -18.590642908131656 a40.31468351389559,40.31468351389559 0 0,0 0.664501145349493,0.19342659886778021 l -5.5571583006145815 18.49797261496136" fill="#ffe715" stroke="none" /><path d="M 106.04205211174951 79.88797359093562 l 5.507170757264677 -18.331580340716904 a40.14094479219429,40.14094479219429 0 0,0 0.6582338259321362,0.20392252186172868 l -5.821045216068444 18.23434123104853" fill="#ffe515" stroke="none" /><path d="M 106.72888874123014 80.10723608172694 l 12.071020308352672 -35.68582666189856 a58.67210846007604,58.67210846007604 0 0,0 0.9513102034573591,0.33091507097700334 l -12.68183628385505 35.473353158352964" fill="#44ff2d" stroke="none" /><path d="M 107.40779381753099 80.34994680014964 l 5.868719889589685 -15.567476753003572 a37.63695301423227,37.63695301423227 0 0,0 0.6025994075529898,0.23309839615116418 l -6.135091559636201 15.464438468714368" fill="#ffc512" stroke="none" /><path d="M 108.07796709384702 80.6158196554323 l 6.823150002360817 -16.37307612512345 a38.737897219056265,38.737897219056265 0 0,0 0.6116251418805714,0.2610664035897634 l -7.103210219411818 16.253535071874285" fill="#ffd313" stroke="none" /><path d="M 108.4095320186766 80.7573450057729 l 7.112712351063048 -16.275277808648255 a38.76162562204381,38.76162562204381 0 0,0 0.6074253083686837,0.27169361429530475 l -7.391051062287363 16.150780443443097" fill="#ffd313" stroke="none" /><path d="M 108.73861861582097 80.90454125486305 l 1.1070525323905147 -2.4191095744457622 a23.66038652128735,23.66038652128735 0 0,0 0.3678753920648971,0.17218425860385175 l -1.148416638326917 2.399749084271377" fill="#ff0000" stroke="none" /><path d="M 109.71004243097381 81.37971332152246 l 1.8622756070980246 -3.5711590268533344 a25.027560953215776,25.027560953215776 0 0,0 0.37924046709032644,0.20192418792134 l -1.9233048899749106 3.5386643712094212" fill="#ff1402" stroke="none" /><path d="M 110.02825361518725 81.54914285379988 l 9.095183568741882 -16.734113354610198 a40.046073451345706,40.046073451345706 0 0,0 0.6011789236697348,0.33346381489461496 l -9.381106680567717 16.57551662428244" fill="#ffe415" stroke="none" /><path d="M 110.34350942703115 81.72400993836675 l 9.54448861814017 -16.864196853018072 a40.377781051481406,40.377781051481406 0 0,0 0.6002974940645819,0.34658191979204417 l -9.83257858006515 16.697868035949856" fill="#ffe815" stroke="none" /><line stroke="#e1ed5e" stroke-width="0.3" x1="143.13028292997686" x2="145.6673583964461" y1="26.7553504044142" y2="22.446841604673864" /><path d="M 143.63769802327073 25.89364864446614 a86.0,86.0 0 0,1 29.32050498858742,28.57503671076993" fill="none" id="id14" stroke="none" /><text fill="#e1ed5e" style="font-size:6.75px; font-family:Arial;" text-anchor="middle"><textPath startOffset="20.669276256404974" xlink:href="#id14">February</textPath></text><path d="M 110.65571695917076 81.90426304109057 l 9.01810432880841 -15.314712696236928 a38.772637132782336,38.772637132782336 0 0,0 0.5706358133156144,0.34265041019740333 l -9.27967289868146 15.157648285503603" fill="#ffd313" stroke="none" /><path d="M 110.96478420261332 82.08984904055464 l 9.914001658640732 -16.193776643240057 a39.98751776453885,39.98751776453885 0 0,0 0.5823627301454564,0.3634374149720599 l -10.1905285175759 16.02120343142645" fill="#ffe315" stroke="none" /><path d="M 111.8722381534696 82.67804972795209 l 9.37471509798304 -13.677989494712236 a37.582300195865756,37.582300195865756 0 0,0 0.5290244010894881,0.3693001180659477 l -9.608134590246289 13.515044560841162" fill="#ffc412" stroke="none" /><path d="M 112.7482090630111 83.31218511350987 l 10.045238249607293 -13.149539325215772 a37.54742263788441,37.54742263788441 0 0,0 0.5088391946342902,0.3956764354339777 l -10.26948738887681 12.975161838161002" fill="#ffc312" stroke="none" /><path d="M 115.8921839302757 86.27271002978787 l 14.487732396543372 -12.514158185604186 a40.14415172025589,40.14415172025589 0 0,0 0.44599280189195306,0.5253783991957751 l -14.700419761942436 12.26361300395886" fill="#ffe515" stroke="none" /><path d="M 116.57777611688842 87.10902102172516 l 2.1682600114713875 -1.6860520995235841 a23.746656724029013,23.746656724029013 0 0,0 0.24747185088094312,0.32394859675629056 l -2.1968838397066373 1.6485825895264117" fill="#ff0100" stroke="none" /><path d="M 116.7966241395341 87.39550010848427 l 10.845346166084127 -8.138549951362407 a34.559407390185484,34.559407390185484 0 0,0 0.3520089259590706,0.4775677133351639 l -10.983457111627024 7.951175928758369" fill="#ff9c0e" stroke="none" /><path d="M 117.01052211995028 87.68569379921539 l 5.017025172153949 -3.6319393226907266 a27.19366812331219,27.19366812331219 0 0,0 0.27049269935938175,0.3804818563777593 l -5.078632970043292 3.5452802396034633" fill="#ff3405" stroke="none" /><path d="M 117.21940702142032 87.97951657250589 l 13.563701580993815 -9.46851711368418 a37.5416691089619,37.5416691089619 0 0,0 0.36435130768997653,0.5315994466904297 l -13.724242625499116 9.234282931923701" fill="#ffc312" stroke="none" /><path d="M 117.42321728460499 88.27688183743584 l 13.608642484454382 -9.156501997958426 a37.40233761109414,37.40233761109414 0 0,0 0.35385382907431534,0.5357797976463304 l -13.763820752449421 8.921542321973037" fill="#ffc112" stroke="none" /><path d="M 117.62189284568427 88.57770195909679 l 13.81247600798811 -8.953080070777094 a37.46032005232563,37.46032005232563 0 0,0 0.34513853315032983,0.5426151000989425 l -13.96413223276433 8.71465129599948" fill="#ffc212" stroke="none" /><path d="M 117.81537515405839 88.88188828441811 l 19.40304443068523 -12.108934767709046 a43.87147643655254,43.87147643655254 0 0,0 0.39323891961900653,0.642326222145528 l -19.60805131475964 11.774071429438964" fill="#eaff1a" stroke="none" /><line stroke="#e1ed5e" stroke-width="0.3" x1="172.87174338648825" x2="177.1583165268699" y1="56.24261187166439" y2="53.66864786411523" /><path d="M 173.72905801456457 55.72781907015455 a86.0,86.0 0 0,1 12.242430191666344,42.057860355516425" fill="none" id="id15" stroke="none" /><text fill="#e1ed5e" style="font-size:6.75px; font-family:Arial;" text-anchor="middle"><textPath startOffset="22.145653131862474" xlink:href="#id15">March</textPath></text><path d="M 118.18653347947321 89.5 l 13.633844834223593 -7.871503985128582 a36.74300797025716,36.74300797025716 0 0,0 0.310682489727206,0.5489461903267776 l -13.766960688972175 7.636301024702687" fill="#ffb911" stroke="none" /><path d="M 118.53625476483649 90.13048839642627 l 14.738986525055987 -7.847680147874789 a37.698018070691205,37.698018070691205 0 0,0 0.2992359727629024,0.5738244335148076 l -14.871530566793833 7.593509471255484" fill="#ffc512" stroke="none" /><path d="M 118.70294669586156 90.45014215332178 l 11.646272355260846 -5.946669647572136 a34.07664099339998,34.07664099339998 0 0,0 0.26154647394136615,0.5232681509198067 l -11.74663874241395 5.745869640488579" fill="#ff950d" stroke="none" /><path d="M 118.8641267826498 90.77261029715802 l 19.567108333133728 -9.571253206038381 a42.78257598298905,42.78257598298905 0 0,0 0.3170407724218669,0.6624932780532288 l -19.728528363515508 9.23394742592005" fill="#f8ff18" stroke="none" /><path d="M 119.0197475246899 91.09779779509293 l 5.715388993032152 -2.675090635647226 a27.310450162278485,27.310450162278485 0 0,0 0.19509484743541214,0.42631745066055493 l -5.760468305322616 2.5765842027719867" fill="#ff3605" stroke="none" /><path d="M 119.31412917781788 91.75594674310238 l 25.772419885524393 -11.00071352631364 a49.02201500327543,49.02201500327543 0 0,0 0.32371840617614617,0.7768063292748568 l -25.957464136237025 10.556674687597507" fill="#adff20" stroke="none" /><path d="M 119.4528033332814 92.08871423366111 l 24.305337820632026 -9.884769297875204 a47.23848529635927,47.23848529635927 0 0,0 0.2990450870424405,0.753788970056283 l -24.47144158264059 9.466079310605355" fill="#c2ff1e" stroke="none" /><path d="M 119.71291397450082 92.76114493625339 l 15.666598698213411 -5.752992046987306 a37.68949466771122,37.68949466771122 0 0,0 0.21780907923824486,0.6092507595883712 l -15.7630479474956 5.483206331018018" fill="#ffc512" stroke="none" /><path d="M 119.83427380445688 93.10060997987247 l 20.311681744839365 -7.065457283889126 a42.505466791820695,42.505466791820695 0 0,0 0.23380957511080988,0.6912164635762331 l -20.42997674152254 6.715739145838731" fill="#fbff18" stroke="none" /><path d="M 119.94978838288452 93.4421083053983 l 14.41647836691031 -4.738982786848807 a36.175401357382356,36.175401357382356 0 0,0 0.18886192427087672,0.5916072878460825 l -14.495705006958444 4.490806465311337" fill="#ffb110" stroke="none" /><path d="M 120.16314734710363 94.1308016681162 l 5.861297298320705 -1.706138220079044 a27.10456498411771,27.10456498411771 0 0,0 0.12620596360997677,0.4478604416926047 l -5.889721754005263 1.6052698544834263" fill="#ff3304" stroke="none" /><line stroke="#e1ed5e" stroke-width="0.3" x1="184.99686870605535" x2="189.99668451229388" y1="99.2704041080226" y2="99.22748670261217" /><path d="M 185.99683186730306 99.26182062694052 a86.0,86.0 0 0,1 -10.086455211305974,41.156179273409016" fill="none" id="id16" stroke="none" /><text fill="#e1ed5e" style="font-size:6.75px; font-family:Arial;" text-anchor="middle"><textPath startOffset="21.40746469413373" xlink:href="#id16">April</textPath></text><line stroke="#e1ed5e" stroke-width="0.3" x1="174.33088141563837" x2="178.70328620479359" y1="141.23008692659167" y2="143.65538615756765" /><path d="M 175.20536237346943 141.71514677278685 a86.0,86.0 0 0,1 -30.301960400862466,31.631185727798858" fill="none" id="id17" stroke="none" /><text fill="#e1ed5e" style="font-size:6.75px; font-family:Arial;" text-anchor="middle"><textPath startOffset="22.145653131862474" xlink:href="#id17">May</textPath></text><line stroke="#e1ed5e" stroke-width="0.3" x1="143.1302829299769" x2="145.66735839644613" y1="173.24464959558577" y2="177.55315839532614" /><path d="M 143.63769802327073 174.10635135553383 a86.0,86.0 0 0,1 -40.68552437913181,11.842963189579606" fill="none" id="id18" stroke="none" /><text fill="#e1ed5e" style="font-size:6.75px; font-family:Arial;" text-anchor="middle"><textPath startOffset="21.407464694133747" xlink:href="#id18">June</textPath></text><line stroke="#e1ed5e" stroke-width="0.3" x1="101.45913802915013" x2="101.54496967792366" y1="184.9874750549273" y2="189.98673829345242" /><path d="M 101.47630435890484 185.9873277026323 a86.0,86.0 0 0,1 -42.54439059252881,-10.42667462771756" fill="none" id="id19" stroke="none" /><text fill="#e1ed5e" style="font-size:6.75px; font-family:Arial;" text-anchor="middle"><textPath startOffset="22.145653131862474" xlink:href="#id19">July</textPath></text><line stroke="#e1ed5e" stroke-width="0.3" x1="58.13341422392154" x2="55.67067388415222" y1="173.97424548756322" y2="178.32567169271397" /><path d="M 57.64086615596768 174.84453072859336 a86.0,86.0 0 0,1 -31.369924170532247,-30.572349798747897" fill="none" id="id20" stroke="none" /><text fill="#e1ed5e" style="font-size:6.75px; font-family:Arial;" text-anchor="middle"><textPath startOffset="22.145653131862474" xlink:href="#id20">August</textPath></text><line stroke="#e1ed5e" stroke-width="0.3" x1="26.387840678322732" x2="22.057713659400548" y1="142.50000000000003" y2="145.00000000000006" /><path d="M 25.521815274538298 143.00000000000003 a86.0,86.0 0 0,1 -11.493303480769221,-40.785679425670985" fill="none" id="id21" stroke="none" /><text fill="#e1ed5e" style="font-size:6.75px; font-family:Arial;" text-anchor="middle"><textPath startOffset="21.40746469413373" xlink:href="#id21">September</textPath></text><line stroke="#e1ed5e" stroke-width="0.3" x1="15.003131293944662" x2="10.003315487706104" y1="100.72959589197737" y2="100.7725132973878" /><path d="M 14.003168132696942 100.73817937305945 a86.0,86.0 0 0,1 10.791469493833604,-42.45332614584628" fill="none" id="id22" stroke="none" /><text fill="#e1ed5e" style="font-size:6.75px; font-family:Arial;" text-anchor="middle"><textPath startOffset="22.145653131862435" xlink:href="#id22">October</textPath></text><line stroke="#e1ed5e" stroke-width="0.3" x1="26.387840678322718" x2="22.05771365940052" y1="57.49999999999999" y2="54.99999999999999" /><path d="M 25.521815274538284 56.99999999999999 a86.0,86.0 0 0,1 29.574782752854787,-30.34633250058573" fill="none" id="id23" stroke="none" /><text fill="#e1ed5e" style="font-size:6.75px; font-family:Arial;" text-anchor="middle"><textPath startOffset="21.40746469413373" xlink:href="#id23">November</textPath></text><line stroke="#e1ed5e" stroke-width="0.3" x1="56.869717070023135" x2="54.33264160355391" y1="26.7553504044142" y2="22.446841604673864" /><path d="M 56.362301976729285 25.89364864446614 a86.0,86.0 0 0,1 42.16139366436587,-11.88097634709845" fill="none" id="id24" stroke="none" /><text fill="#e1ed5e" style="font-size:6.75px; font-family:Arial;" text-anchor="middle"><textPath startOffset="22.145653131862474" xlink:href="#id24">December</textPath></text></svg>