<?xml version="1.0" encoding="utf-8" ?>
<svg baseProfile="full" height="200mm" version="1.1" viewBox="0,0,200,200" width="200mm" xmlns="http://www.w3.org/2000/svg" xmlns:ev="http://www.w3.org/2001/xml-events" xmlns:xlink="http://www.w3.org/1999/xlink"><defs /><rect fill="#1a1a1a" height="200" width="200" x="0" y="0" /><text alignment-baseline="middle" fill="#e1ed5e" style="dominant-baseline: central; font-size:9.0px; font-family:Arial;" text-anchor="middle" x="100.0" y="100.0">2024</text><line stroke="#e1ed5e" stroke-width="0.3" x1="100.0" x2="100.0" y1="15.0" y2="10.0" /><path d="M 100.0 14.0 a86.0,86.0 0 0,1 42.35913384403234,11.155469271406648" fill="none" id="id13" stroke="none" /><text fill="#e1ed5e" style="font-size:6.75px; font-family:Arial;" text-anchor="middle"><textPath startOffset="22.145653131862478" xlink:href="#id13">January</textPath></text><path d="M 100.0 79.0 l 0.0 -59.23094118747524 a80.23094118747524,80.23094118747524 0 0,0 1.3772707929547332,0.011822213311825567 l -1.0167778681058786 59.22221337235785" fill="#48f6ff" stroke="none" /><path d="M 100.72087961077811 79.0123766808444 l 0.4453451252770351 -12.965737408286197 a33.97338347622701,33.97338347622701 0 0,0 0.5826827406364848,0.025022904012454654 l -0.6678536265143562 12.956181935847912" fill="#ff9b0e" stroke="none" /><path d="M 101.08105385017728 79.02784411241856 l 0.6938318357211162 -13.460152254324676 a34.47802290122189,34.47802290122189 0 0,0 0.590814822300524,0.03554195258697321 l -0.9247910101541026 13.44625832391301" fill="#ffa20e" stroke="none" /><path d="M 102.15924093988457 79.11130261209362 l 1.3661408833841155 -13.216173783636874 a34.28659438654406,34.28659438654406 0 0,0 0.5849359916702093,0.06554329792637016 l -1.5928127766551214 13.190774725203532" fill="#ff9f0e" stroke="none" /><path d="M 102.51750503828377 79.15144685158666 l 0.3749978260374991 -3.105519944465351 a24.128078882478018,24.128078882478018 0 0,0 0.41077730074544444,0.05318334562956265 l -0.42825294867373526 3.098625002635391" fill="#ff1101" stroke="none" /><path d="M 102.87502721639298 79.19773525538626 l 2.131912992444022 -15.42546040205567 a36.57208661749411,36.57208661749411 0 0,0 0.6211592920000675,0.09128902512901653 l -2.3963973900517717 15.386590303627772" fill="#ffbd11" stroke="none" /><path d="M 103.23170211078529 79.25015418208739 l 2.573029341730557 -16.52069414061824 a37.71986288464305,37.71986288464305 0 0,0 0.6389430385629065,0.10513783384918472 l -2.856249883346534 16.474090308273386" fill="#ffcc13" stroke="none" /><path d="M 103.58742460773223 79.30868818359171 l 3.0671778840792285 -17.690666964564624 a38.95458932484179,38.95458932484179 0 0,0 0.6578971334430617,0.11989077341991634 l -3.370409751073344 17.63540801721334" fill="#ffdc14" stroke="none" /><path d="M 104.29559338865022 79.4440306129975 l 6.054789852866875 -28.974361304567992 a50.600238059347205,50.600238059347205 0 0,0 0.8487288367867131,0.18497649970965682 l -6.5512811062727225 28.86615334672462" fill="#97ff23" stroke="none" /><path d="M 104.9986988182912 79.60360301121754 l 3.5808890126040094 -14.611249152796196 a36.043648757056104,36.043648757056104 0 0,0 0.5996885756456426,0.15243849086518954 l -3.8311828814750464 14.547625430095739" fill="#ffb610" stroke="none" /><path d="M 105.3480935250658 79.69241777938227 l 4.254230094782666 -16.15400460562483 a37.70479986404814,37.70479986404814 0 0,0 0.6244966984167147,0.17020935216694208 l -4.530908194134073 16.07859475931375" fill="#ffcc13" stroke="none" /><path d="M 105.69591212413111 79.78721728523813 l 4.925379134337222 -17.47843296395079 a39.15915687724202,39.15915687724202 0 0,0 0.6454547655540648,0.1878824752942444 l -5.224693912272891 17.39130679435403" fill="#ffde14" stroke="none" /><path d="M 106.04205211174951 79.88797359093562 l 5.177696940205201 -17.23486915927747 a38.99581230570112,38.99581230570112 0 0,0 0.6394558688689493,0.19810506276303583 l -5.47279344194578 17.143447508707787" fill="#ffdc14" stroke="none" /><path d="M 106.72888874123014 80.10723608172694 l 11.348855459632642 -33.55087460694205 a56.41832445407861,56.41832445407861 0 0,0 0.9147673251192933,0.3182035609616616 l -11.923128556796952 33.3511126134118" fill="#59ff2a" stroke="none" /><path d="M 107.40779381753099 80.34994680014964 l 5.517615914699251 -14.63613174594512 a36.641625167060006,36.641625167060006 0 0,0 0.5866633680228984,0.22693399371580464 l -5.768051545215675 14.539257864091276" fill="#ffbe11" stroke="none" /><path d="M 108.07796709384702 80.6158196554323 l 6.414945976240555 -15.39353506389273 a37.676703920180984,37.676703920180984 0 0,0 0.5948701668152749,0.25391470104679104 l -6.6782512182262606 15.281145713186536" fill="#ffcb13" stroke="none" /><path d="M 108.4095320186766 80.7573450057729 l 6.687184872210225 -15.301587661807392 a37.699012739892545,37.699012739892545 0 0,0 0.5907733246796871,0.26424539379589823 l -6.948871599745544 15.184538517101641" fill="#ffcc13" stroke="none" /><path d="M 108.73861861582097 80.90454125486305 l 1.0408216418645726 -2.2743831258738907 a23.501225358386076,23.501225358386076 0 0,0 0.3654007293982018,0.17102599152279513 l -1.0797110851342795 2.256180902780562" fill="#ff0701" stroke="none" /><path d="M 109.71004243097381 81.37971332152246 l 1.7508624914109974 -3.35750968715351 a24.786606761093577,24.786606761093577 0 0,0 0.3755893090514503,0.1999801519179329 l -1.8082406162490072 3.326959067513004" fill="#ff1a02" stroke="none" /><path d="M 110.02825361518725 81.54914285379988 l 8.551052111895897 -15.732972760816834 a38.9066167690316,38.9066167690316 0 0,0 0.5840731931247877,0.3239755545124013 l -8.819869493176785 15.583864290871286" fill="#ffdb14" stroke="none" /><path d="M 110.34350942703115 81.72400993836675 l 8.973476888977572 -15.85527384087489 a39.218479520699475,39.218479520699475 0 0,0 0.583062128829768,0.33663107703414286 l -9.244331485667738 15.698895866564575" fill="#ffdf14" stroke="none" /><line stroke="#e1ed5e" stroke-width="0.3" x1="143.13028292997686" x2="145.6673583964461" y1="26.7553504044142" y2="22.446841604673864" /><path d="M 143.63769802327073 25.89364864446614 a86.0,86.0 0 0,1 29.32050498858742,28.57503671076993" fill="none" id="id14" stroke="none" /><text fill="#e1ed5e" style="font-size:6.75px; font-family:Arial;" text-anchor="middle"><textPath startOffset="20.669276256404974" xlink:href="#id14">February</textPath></text><path d="M 110.65571695917076 81.90426304109057 l 8.478584240034396 -14.398489635141107 a37.70936547235189,37.70936547235189 0 0,0 0.5549871256432413,0.3332538228734598 l -8.724504122235071 14.250821811731727" fill="#ffcc13" stroke="none" /><path d="M 110.96478420261332 82.08984904055464 l 9.32088332024573 -15.224962412045421 a38.85156425408796,38.85156425408796 0 0,0 0.5658191429300692,0.35311299299123805 l -9.580866591965512 15.06271362221264" fill="#ffdb14" stroke="none" /><path d="M 111.8722381534696 82.67804972795209 l 8.81386029552333 -12.859685576574682 a36.590242026260064,36.590242026260064 0 0,0 0.5150597694334588,0.35955172062209 l -9.03331515613055 12.706489040147465" fill="#ffbd11" stroke="none" /><path d="M 112.7482090630111 83.31218511350987 l 9.444268507566132 -12.362850641496003 a36.55745106458457,36.55745106458457 0 0,0 0.495423191545959,0.3852440702865222 l -9.655101643747317 12.19890551958869" fill="#ffbd11" stroke="none" /><path d="M 115.8921839302757 86.27271002978787 l 13.620984532056193 -11.765482023845767 a38.99882737502507,38.99882737502507 0 0,0 0.43326849730671463,0.5103892003891729 l -13.820947592870018 11.529926041007043" fill="#ffdc14" stroke="none" /><path d="M 116.57777611688842 87.10902102172516 l 2.0385409717240663 -1.5851817896174698 a23.582334331478506,23.582334331478506 0 0,0 0.2457593922768437,0.3217069334728647 l -2.0654523413552166 1.549953942903723" fill="#ff0801" stroke="none" /><path d="M 116.7966241395341 87.39550010848427 l 10.196508903510148 -7.651650373340897 a33.74819780420784,33.74819780420784 0 0,0 0.3437462549050297,0.4663578131584344 l -10.326357177999004 7.475486250913588" fill="#ff980e" stroke="none" /><path d="M 117.01052211995028 87.68569379921539 l 4.716874966792593 -3.4146537209329058 a26.823123688041974,26.823123688041974 0 0,0 0.26680693089025365,0.37529736144449954 l -4.774796996212808 3.333179132778902" fill="#ff3805" stroke="none" /><path d="M 117.21940702142032 87.97951657250589 l 12.752235089338246 -8.902050480844927 a36.552041748184095,36.552041748184095 0 0,0 0.3547467261254585,0.5175860751514002 l -12.903171552279028 8.681829670623479" fill="#ffbd11" stroke="none" /><path d="M 117.42321728460499 88.27688183743584 l 12.794487343461816 -8.608702084509128 a36.421045942536985,36.421045942536985 0 0,0 0.34457008274893386,0.5217230224501289 l -12.940381865131473 8.38779918371994" fill="#ffbb11" stroke="none" /><path d="M 117.62189284568427 88.57770195909679 l 12.986126255278679 -8.417450144745317 a36.47555950708443,36.47555950708443 0 0,0 0.336065497746091,0.5283507814523545 l -13.12870944465066 8.193285688614289" fill="#ffbc11" stroke="none" /><path d="M 117.81537515405839 88.88188828441811 l 18.242231484633116 -11.384501636018236 a42.50315993149476,42.50315993149476 0 0,0 0.38097411004680193,0.6222925774455549 l -18.43497355913532 11.069671942448126" fill="#f6ff19" stroke="none" /><line stroke="#e1ed5e" stroke-width="0.3" x1="172.87174338648825" x2="177.1583165268699" y1="56.24261187166439" y2="53.66864786411523" /><path d="M 173.72905801456457 55.72781907015455 a86.0,86.0 0 0,1 12.242430191666344,42.057860355516425" fill="none" id="id15" stroke="none" /><text fill="#e1ed5e" style="font-size:6.75px; font-family:Arial;" text-anchor="middle"><textPath startOffset="22.145653131862474" xlink:href="#id15">March</textPath></text><path d="M 118.18653347947321 89.5 l 12.818181929127947 -7.400580787303619 a35.801161574607235,35.801161574607235 0 0,0 0.3027186566251916,0.5348748603152675 l -12.943333950774516 7.179449156889234" fill="#ffb310" stroke="none" /><path d="M 118.53625476483649 90.13048839642627 l 13.857207048072725 -7.3781822428077595 a36.69903692527794,36.69903692527794 0 0,0 0.29130634913497105,0.5586183346481828 l -13.981821466182641 7.139217665055079" fill="#ffbf11" stroke="none" /><path d="M 118.70294669586156 90.45014215332178 l 10.949518617901177 -5.590902224709357 a33.29431354936194,33.29431354936194 0 0,0 0.2555419213067523,0.5112550233602303 l -11.043880452419668 5.402115345185376" fill="#ff920d" stroke="none" /><path d="M 118.8641267826498 90.77261029715802 l 18.396480045853977 -8.998640249798305 a41.47940439619262,41.47940439619262 0 0,0 0.3073836043579231,0.642313511020363 l -18.54824290817181 8.681514236712838" fill="#fffc17" stroke="none" /><path d="M 119.0197475246899 91.09779779509293 l 5.373458243013185 -2.515049779542644 a26.932919086165246,26.932919086165246 0 0,0 0.19239791760603234,0.4204241722650184 l -5.415840625474269 2.422436625062941" fill="#ff3905" stroke="none" /><path d="M 119.31412917781788 91.75594674310238 l 24.230550579339887 -10.342581204719789 a47.34556067640565,47.34556067640565 0 0,0 0.3126478877022497,0.7502411150182487 l -24.40452431157862 9.925107580260262" fill="#bcff1f" stroke="none" /><path d="M 119.4528033332814 92.08871423366111 l 22.85123865072339 -9.293399824352496 a45.66873300693794,45.66873300693794 0 0,0 0.2891077085028866,0.7287402845604847 l -23.0074050341924 8.899758522578447" fill="#d0ff1d" stroke="none" /><path d="M 119.71291397450082 92.76114493625339 l 14.729323588915156 -5.408811644239968 a36.6910234462204,36.6910234462204 0 0,0 0.21203887458795234,0.5931104702190482 l -14.820002633547052 5.155166217640002" fill="#ffbf11" stroke="none" /><path d="M 119.83427380445688 93.10060997987247 l 19.096508362655474 -6.642756902296116 a41.21887363104021,41.21887363104021 0 0,0 0.22673241955959864,0.6702941107172079 l -19.207726203787438 6.313961117104747" fill="#fff817" stroke="none" /><path d="M 119.94978838288452 93.4421083053983 l 13.55399336953927 -4.455466837084116 a35.267512782467406,35.267512782467406 0 0,0 0.1841220851302395,0.5767598092468639 l -13.628480170446768 4.222137994145865" fill="#ffac0f" stroke="none" /><path d="M 120.16314734710363 94.1308016681162 l 5.51063738982764 -1.6040662312889777 a26.739351262688842,26.739351262688842 0 0,0 0.12450543273395923,0.4418258575298566 l -5.537361314636181 1.5092324498561078" fill="#ff3605" stroke="none" /><path d="M 120.26092885502905 94.47779374421319 l 12.424451870818912 -3.386339606475064 a33.877666722689995,33.877666722689995 0 0,0 0.14811077004449905,0.5624007183757435 l -12.480752121668141 3.172558383726522" fill="#ff9a0e" stroke="none" /><path d="M 120.35273937422433 94.82641323984039 l 21.224857010321134 -5.395275652865934 a42.899852841491565,42.899852841491565 0 0,0 0.17530202306740497,0.7152920760770543 l -21.31434655990483 5.030127752180784" fill="#f1ff19" stroke="none" /><path d="M 120.51834098615036 95.52812308129327 l 21.641342745247723 -4.716629925276039 a43.14936373057465,43.14936373057465 0 0,0 0.15152061228402924,0.7250809808581925 l -21.71912106835612 4.344432493132442" fill="#eeff19" stroke="none" /><path d="M 120.592083275326 95.88100663000786 l 17.46246786290147 -3.4929826375157367 a38.80838879766648,38.80838879766648 0 0,0 0.12506226478541416,0.6543786156401691 l -17.51985641996904 3.1927014568422534" fill="#ffda14" stroke="none" /><path d="M 120.7213421655516 96.59031103205396 l 11.305025593569487 -1.8602376593550851 a32.457054063787254,32.457054063787254 0 0,0 0.08574613947840823,0.5505517255814839 l -11.335293225186161 1.66589775184216" fill="#ff860c" stroke="none" /><path d="M 120.77682067341334 96.94652285012252 l 37.643858429759575 -5.532350851715273 a59.048219188632935,59.048219188632935 0 0,0 0.13877873355279782,1.0041337834392796 l -37.73328167986758 4.885328760075907" fill="#3eff2d" stroke="none" /><path d="M 120.82617615685814 97.30363454192243 l 11.628261901056565 -1.5055113090053909 a32.72531616380159,32.72531616380159 0 0,0 0.0673485662424958,0.5577427418907156 l -11.652392553558725 1.3056748901912625" fill="#ff8a0c" stroke="none" /><path d="M 120.86939407059847 97.66154086499901 l 12.825003816818919 -1.437068428072605 a33.90526592397006,33.90526592397006 0 0,0 0.059847004289260194,0.5789654776728711 l -12.847783213589844 1.2166984281168025" fill="#ff9a0e" stroke="none" /><path d="M 120.9064616781168 98.02013634271609 l 12.929851189972986 -1.2244703508060393 a33.98770108351932,33.98770108351932 0 0,0 0.050020795872554855,0.5813174703470261 l -12.948965608543281 1.0023318330833513" fill="#ff9b0e" stroke="none" /><path d="M 120.93736805541906 98.37931529534042 l 11.63083613425726 -0.9003002753401893 a32.66562856290744,32.66562856290744 0 0,0 0.038477059842838335,0.5594480055610319 l -11.644577155265164 0.7005088456248233" fill="#ff890c" stroke="none" /><path d="M 120.98066250479742 99.09900007780936 l 17.624584947192776 -0.7568755115541274 a38.64082920672394,38.64082920672394 0 0,0 0.022771064577835298,0.6629546997728772 l -17.63498069876746 0.4542145472171301" fill="#ffd814" stroke="none" /><path d="M 120.99303781780057 99.45929381324524 l 24.685013005731825 -0.635798371258274 a45.69319960357596,45.69319960357596 0 0,0 0.01346549958202553,0.7842978436357138 l -24.692289936912516 0.21195361165349383" fill="#d0ff1d" stroke="none" /><line stroke="#e1ed5e" stroke-width="0.3" x1="184.99686870605535" x2="189.99668451229388" y1="99.2704041080226" y2="99.22748670261217" /><path d="M 185.99683186730306 99.26182062694052 a86.0,86.0 0 0,1 -10.086455211305974,41.156179273409016" fill="none" id="id16" stroke="none" /><text fill="#e1ed5e" style="font-size:6.75px; font-family:Arial;" text-anchor="middle"><textPath startOffset="21.40746469413373" xlink:href="#id16">April</textPath></text><path d="M 120.99922638620191 99.81974689727618 l 11.765094809246444 -0.10098918903984647 a32.765528236626714,32.765528236626714 0 0,0 0.0,0.5624845835273452 l -11.765094809246444 -0.10098918903984504" fill="#ff8b0c" stroke="none" /><path d="M 120.99922638620191 100.18025310272382 l 11.80984938392738 0.10137335323708542 a32.81028446007108,32.81028446007108 0 0,0 -0.009668985221347544,0.563169915312604 l -11.806368967107366 -0.30409018451876046" fill="#ff8b0c" stroke="none" /><path d="M 120.99303781780057 100.54070618675476 l 10.229396568724606 0.2634729694426255 a31.23278907072073,31.23278907072073 0 0,0 -0.0184055019386506,0.5358561067795805 l -10.223366379789109 -0.4390353407863167" fill="#ff760a" stroke="none" /><path d="M 120.98066250479742 100.90099992219065 l 20.257196307256166 0.8699311707847631 a41.27586699681707,41.27586699681707 0 0,0 -0.036476880250611146,0.7076417319849829 l -20.23927783754898 -1.2175446961464766" fill="#fff917" stroke="none" /><path d="M 120.96210409425399 101.26102812881392 l 17.618914943562245 1.059910171379315 a38.65076693404211,38.65076693404211 0 0,0 -0.04552699389906882,0.6619524994907671 l -17.59812398849811 -1.3622060950244257" fill="#ffd814" stroke="none" /><path d="M 120.93736805541906 101.62068470465957 l 17.78143623029891 1.376395621887451 a38.83462753522309,38.83462753522309 0 0,0 -0.057154173856967104,0.6642181354122804 l -17.755188433744205 -1.6814348046753886" fill="#ffda14" stroke="none" /><path d="M 120.9064616781168 101.97986365728391 l 13.931576551582282 1.3193347840403695 a34.99390829914846,34.99390829914846 0 0,0 -0.06176859325549541,0.5975551077962111 l -13.90687556584512 -1.558294414119512" fill="#ffa80f" stroke="none" /><path d="M 120.86939407059847 102.33845913500097 l 17.66590763080562 1.9795017975889069 a38.77646533444751,38.77646533444751 0 0,0 -0.07980180637996642,0.6608734347504294 l -17.62932373816599 -2.282468909262745" fill="#ffda14" stroke="none" /><path d="M 120.82617615685814 102.69636545807757 l 17.68658936231457 2.289883090806515 a38.83420892107919,38.83420892107919 0 0,0 -0.09127053121408724,0.6603880975008543 l -17.644674314545274 -2.5931594965074543" fill="#ffda14" stroke="none" /><path d="M 120.7213421655516 103.40968896794604 l 5.780327056198447 0.9511506174250356 a26.85806012035109,26.85806012035109 0 0,0 -0.0787646921103031,0.4542938131898294 l -5.76314754659591 -1.050237463535453" fill="#ff3805" stroke="none" /><path d="M 120.65975698304385 103.76489593502545 l 17.54727179623703 3.197697451652513 a38.836255674421146,38.836255674421146 0 0,0 -0.12515206739838625,0.6548485008582339 l -17.489793436556486 -3.498448517544061" fill="#ffda14" stroke="none" /><path d="M 120.592083275326 104.11899336999214 l 29.230002879459462 5.846819209866392 a50.80903157108716,50.80903157108716 0 0,0 -0.17841782375471926,0.8537938746455678 l -29.12532734488038 -6.347729535797368" fill="#95ff23" stroke="none" /><path d="M 120.51834098615036 104.47187691870673 l 28.93547595367503 6.306352308716066 a50.61472350212567,50.61472350212567 0 0,0 -0.19230977051103137,0.8473523324055859 l -28.822955321606337 -6.802138975060669" fill="#97ff23" stroke="none" /><path d="M 120.43855184770803 104.8234425847677 l 17.20768275787709 4.060966276768039 a38.680378757164334,38.680378757164334 0 0,0 -0.15805995125899033,0.6449385392273185 l -17.135435280101806 -4.355760640603457" fill="#ffd814" stroke="none" /><path d="M 120.35273937422433 105.17358676015961 l 18.652719085005867 4.741448250517904 a40.24591543098123,40.24591543098123 0 0,0 -0.17595230434320494,0.6681195589811186 l -18.56857729985793 -5.060948313871826" fill="#ffec16" stroke="none" /><path d="M 120.26092885502905 105.52220625578681 l 14.653452062772663 3.9938635207156308 a36.1879756115843,36.1879756115843 0 0,0 -0.16850070590804983,0.5979495612957587 l -14.582732864790033 -4.244821005914398" fill="#ffb811" stroke="none" /><path d="M 120.16314734710363 105.8691983318838 l 11.21960115820218 3.265862380933345 a32.685260255566725,32.685260255566725 0 0,0 -0.1614397845403088,0.5373805372903738 l -11.16188505365824 -3.4579805218144424" fill="#ff890c" stroke="none" /><path d="M 119.94978838288452 106.5578916946017 l 12.95445509400893 4.2583866975739975 a34.63641316654673,34.63641316654673 0 0,0 -0.19052431738947773,0.5632512904093738 l -12.879445355047086 -4.480139662457532" fill="#ffa40f" stroke="none" /><path d="M 119.83427380445688 106.89939002012753 l 56.22001143882258 19.556238341597773 a80.52424837202668,80.52424837202668 0 0,0 -0.4653528137984971,1.301674642190645 l -55.87601845498014 -20.518447940169338" fill="#49f3ff" stroke="none" /><path d="M 119.58574465831526 107.57618678355244 l 18.378789437902757 7.109310575945672 a40.70589247073116,40.70589247073116 0 0,0 -0.2576902515116885,0.6495477695407642 l -18.254040511424943 -7.4237593627" fill="#fff216" stroke="none" /><path d="M 119.0197475246899 108.90220220490707 l 22.59869838695607 10.5773319202706 a45.951575488056584,45.951575488056584 0 0,0 -0.34052467977916595,0.7115656123394114 l -22.41379444921699 -10.963710034675115" fill="#ccff1d" stroke="none" /><path d="M 118.8641267826498 109.22738970284198 l 10.521911242246894 5.146794048279191 a32.713244860632074,32.713244860632074 0 0,0 -0.25108207836964425,0.5023323499556622 l -10.432009250665518 -5.326658254398599" fill="#ff8a0c" stroke="none" /><path d="M 118.70294669586154 109.54985784667822 l 10.502861354420162 5.362835843416947 a32.79279885835462,32.79279885835462 0 0,0 -0.2602997602578672,0.49915911210435354 l -10.409253525187346 -5.542341198625804" fill="#ff8b0c" stroke="none" /><line stroke="#e1ed5e" stroke-width="0.3" x1="174.33088141563837" x2="178.70328620479359" y1="141.23008692659167" y2="143.65538615756765" /><path d="M 175.20536237346943 141.71514677278685 a86.0,86.0 0 0,1 -30.301960400862466,31.631185727798858" fill="none" id="id17" stroke="none" /><text fill="#e1ed5e" style="font-size:6.75px; font-family:Arial;" text-anchor="middle"><textPath startOffset="22.145653131862474" xlink:href="#id17">May</textPath></text><path d="M 118.36410011445183 110.18625677009912 l 21.782967817071125 12.082645052935403 a45.90959651208306,45.90959651208306 0 0,0 -0.3881910745655646,0.6858964330069995 l -21.57234337748418 -12.454798256041526" fill="#cdff1d" stroke="none" /><path d="M 117.62189284568427 111.42229804090321 l 30.61425594460694 19.843790832347153 a57.482991950220395,57.482991950220395 0 0,0 -0.5438316989631137,0.8234305062809559 l -30.269099806723098 -20.366401216967173" fill="#4eff2c" stroke="none" /><path d="M 117.423217284605 111.72311816256416 l 14.785487878246215 9.948336099842765 a38.820775599092215,38.820775599092215 0 0,0 -0.3767653567563988,0.549711915276687 l -14.612532784674496 -10.200682750189497" fill="#ffda14" stroke="none" /><path d="M 117.21940702142032 112.02048342749411 l 17.54087251328786 12.244891307085906 a42.39204458787812,42.39204458787812 0 0,0 -0.4216694312786874,0.5931308622030814 l -17.32808798347921 -12.544199395998492" fill="#f7ff18" stroke="none" /><path d="M 116.79662413953412 112.60449989151573 l 6.011954271091407 4.511482565083524 a28.516453225607595,28.516453225607595 0 0,0 -0.2971794952996519,0.3890174989372049 l -5.933622798437451 -4.614020977261606" fill="#ff5007" stroke="none" /><path d="M 116.57777611688842 112.89097897827486 l 18.57384923702608 14.443137509634237 a44.52853791891833,44.52853791891833 0 0,0 -0.4744061298529603,0.5993966474436668 l -18.32317667653156 -14.759854100992587" fill="#ddff1b" stroke="none" /><path d="M 116.1254893667686 113.45245675266167 l 48.37646810030581 40.35737025798503 a84.0,84.0 0 0,0 -0.933221745971542,1.0993328702017733 l -47.67655179082715 -41.181869910636365" fill="#4dd2ff" stroke="none" /><path d="M 115.89218393027572 113.72728997021213 l 8.985392477212551 7.761368014114053 a32.87333615375479,32.87333615375479 0 0,0 -0.3725471569220889,0.42389027703899645 l -8.850834256331877 -7.914470568964343" fill="#ff8c0c" stroke="none" /><path d="M 115.6541949942343 113.99807769240083 l 18.079236632686275 16.166564879053386 a45.253177466247756,45.253177466247756 0 0,0 -0.5227868998820067,0.5746343817556459 l -17.79905203196239 -16.474536836366706" fill="#d5ff1c" stroke="none" /><path d="M 115.41159269507618 114.26474011684316 l 12.955631947825735 11.991539514553141 a38.65348178396013,38.65348178396013 0 0,0 -0.4549039299374995,0.48309220938476904 l -12.747872184151975 -12.212173183882408" fill="#ffd814" stroke="none" /><path d="M 115.16444852881244 114.52719865689866 l 4.2045727242960975 4.02788555859277 a26.82256763524606,26.82256763524606 0 0,0 -0.3213767640025282,0.3297608716142317 l -4.134809159142762 -4.099469122274738" fill="#ff3805" stroke="none" /><path d="M 114.65682725009322 115.03919595460226 l 8.657193648281952 8.883043340271497 a33.40384863052574,33.40384863052574 0 0,0 -0.4140924226912459,0.39669117378865126 l -8.503428739725395 -9.030346644365729" fill="#ff930d" stroke="none" /><path d="M 114.39649973595853 115.28858382429668 l 17.764687666413735 18.865482685492 a46.913134986755864,46.913134986755864 0 0,0 -0.5910389929440344,0.547056868169176 l -17.438218902155732 -19.167657299793557" fill="#c1ff1e" stroke="none" /><path d="M 114.13192950727249 115.5334660781643 l 3.8874338933503902 4.27297082697655 a26.776713768515975,26.776713768515975 0 0,0 -0.34265902173048707,0.30640781017178326 l -3.8135098447965254 -4.339074167031721" fill="#ff3705" stroke="none" /><path d="M 113.86319453409587 115.77377054828091 l 3.9575868884095775 4.503007394805269 a26.994962016308556,26.994962016308556 0 0,0 -0.35070378957482157,0.30292958062072317 l -3.8797036190719005 -4.57028110789071" fill="#ff3a05" stroke="none" /><path d="M 113.59037401385872 116.0094264158162 l 16.70033619905823 19.672954050092528 a46.80554882614642,46.80554882614642 0 0,0 -0.6169989151769484,0.5147224393674563 l -16.36016294971939 -19.956738673371856" fill="#c2ff1e" stroke="none" /><path d="M 113.31354834802062 116.24036423190432 l 7.432101411622049 9.065955279393064 a32.7229551104058,32.7229551104058 0 0,0 -0.4374735447117181,0.3523977204923874 l -7.275377096555078 -9.192201293678856" fill="#ff8a0c" stroke="none" /><path d="M 113.03279911837588 116.46651593811092 l 5.852881097931527 7.39492406869599 a30.430859935780163,30.430859935780163 0 0,0 -0.41239619590101034,0.32068177628871847 l -5.725074957395286 -7.494306896605502" fill="#ff6b09" stroke="none" /><path d="M 112.7482090630111 116.68781488649013 l 4.851873569188074 6.351258249301131 a28.99244383656848,28.99244383656848 0 0,0 -0.39808973925938074,0.29873396187381446 l -4.742130841017927 -6.43361123843896" fill="#ff5708" stroke="none" /><path d="M 112.45986205192187 116.90419585922612 l 9.277796773921036 12.587113176286456 a36.63690925633399,36.63690925633399 0 0,0 -0.509460629716918,0.36881020743159904 l -9.060355133830152 -12.744524155091131" fill="#ffbe11" stroke="none" /><path d="M 112.16784306229584 117.11559508785304 l 16.34630865345054 22.9931302253942 a49.211448813483656,49.211448813483656 0 0,0 -0.6927212304627186,0.4835732183049157 l -15.94919233181406 -23.27034825950424" fill="#a7ff21" stroke="none" /><path d="M 111.8722381534696 117.32195027204791 l 16.143180244428063 23.553382421407072 a49.554580926589345,49.554580926589345 0 0,0 -0.7058075760447768,0.474898836354232 l -15.73647638028628 -23.827030931818424" fill="#a3ff22" stroke="none" /><path d="M 111.5731344415666 117.5232005979908 l 18.918354430185214 28.64479984552468 a55.328249191245966,55.328249191245966 0 0,0 -0.7970281105912567,0.5166239918648103 l -18.42384068733695 -28.965337679093384" fill="#64ff29" stroke="none" /><path d="M 111.27062007382361 117.71928675628689 l 7.253741109739607 11.404085838884823 a34.51554415877436,34.51554415877436 0 0,0 -0.5026710246712297,0.3137038967830877 l -7.056905956278663 -11.526925532509459" fill="#ffa20f" stroke="none" /><path d="M 110.96478420261333 117.91015095944535 l 1.0495787146372477 1.714407951457304 a23.010176634587022,23.010176634587022 0 0,0 -0.3386519935037282,0.20335079183689406 l -1.019993964576083 -1.7321727438301215" fill="#ff0000" stroke="none" /><line stroke="#e1ed5e" stroke-width="0.3" x1="143.1302829299769" x2="145.66735839644613" y1="173.24464959558577" y2="177.55315839532614" /><path d="M 143.63769802327073 174.10635135553383 a86.0,86.0 0 0,1 -40.68552437913181,11.842963189579606" fill="none" id="id18" stroke="none" /><text fill="#e1ed5e" style="font-size:6.75px; font-family:Arial;" text-anchor="middle"><textPath startOffset="21.407464694133747" xlink:href="#id18">June</textPath></text><path d="M 109.71004243097381 118.62028667847754 l 6.9801105027635275 13.385282251117227 a36.09595056870761,36.09595056870761 0 0,0 -0.5518774825706738,0.2817925748833322 l -6.749305798479271 -13.503132777673395" fill="#ffb711" stroke="none" /><path d="M 109.3889696526874 118.78422872680471 l 13.187735633141395 26.38430538016019 a50.49657508123913,50.49657508123913 0 0,0 -0.7787046803536989,0.38090348055014683 l -12.732870703525627 -26.60680261080756" fill="#98ff23" stroke="none" /><path d="M 109.06512990194946 118.94263497670748 l 5.050720861150265 10.554064053890327 a32.70034398087844,32.70034398087844 0 0,0 -0.5084300652400368,0.23797094267131733 l -4.868802082038722 -10.63921122813218" fill="#ff8a0c" stroke="none" /><path d="M 108.73861861582097 119.09545874513695 l 7.563042969555749 16.526613800421824 a39.174943814703795,39.174943814703795 0 0,0 -0.6139023311096607,0.27459070418294096 l -7.278227235590461 -16.654008255514615" fill="#ffdf14" stroke="none" /><path d="M 108.4095320186766 119.2426549942271 l 11.829564522713122 27.06835865978899 a50.540389931955986,50.540389931955986 0 0,0 -0.7979724089831469,0.34060697102240034 l -11.363157038559542 -27.267440280470794" fill="#98ff23" stroke="none" /><path d="M 108.07796709384702 119.3841803445677 l 8.837475724325806 21.206724568308147 a43.97446722111597,43.97446722111597 0 0,0 -0.6992893880961366,0.2843949063697042 l -8.472131875039228 -21.35530673125714" fill="#e4ff1a" stroke="none" /><path d="M 107.407793817531 119.65005319985036 l 7.551008440382891 20.029947001885777 a42.40599227704912,42.40599227704912 0 0,0 -0.6833641819726063,0.25094079320055196 l -7.206055106756159 -20.15661864409505" fill="#f7ff18" stroke="none" /><path d="M 107.06938296918513 119.77432235084164 l 7.660323877201951 21.427289244325813 a43.75542322752163,43.75542322752163 0 0,0 -0.7094509071761095,0.2467838528901127 l -7.29136719798082 -21.555631529784517" fill="#e7ff1a" stroke="none" /><path d="M 106.72888874123015 119.89276391827305 l 3.6838962507405113 10.890784679848188 a32.496968406020606,32.496968406020606 0 0,0 -0.5299748940210481,0.1742132743036901 l -3.4963986190717287 -10.952418875553898" fill="#ff870c" stroke="none" /><path d="M 106.38641147887787 120.00534299687104 l 3.7870002535054947 11.86272435642158 a33.452533881764325,33.452533881764325 0 0,0 -0.5485568283983289,0.1699443076676409 l -3.582802792235541 -11.925985251895865" fill="#ff940d" stroke="none" /><path d="M 106.0420521117495 120.11202640906438 l 9.035998408959088 30.077899904214433 a52.405880498636776,52.405880498636776 0 0,0 -0.863798610806149,0.2514391864698259 l -8.518339785771333 -30.228582784986777" fill="#83ff25" stroke="none" /><path d="M 105.69591212413111 120.21278271476187 l 3.1741323883437156 11.263876070290804 a32.702564699483716,32.702564699483716 0 0,0 -0.5416457256960437,0.14762795113001334 l -2.980305261712977 -11.31670451556496" fill="#ff8a0c" stroke="none" /><path d="M 104.9986988182912 120.39639698878246 l 3.70207287822063 15.105720678607536 a36.55275348019662,36.55275348019662 0 0,0 -0.6107231375463679,0.14412899754805453 l -3.4422175869343827 -15.167045819801816" fill="#ffbd11" stroke="none" /><path d="M 104.64783097203109 120.47920084513623 l 5.749921142521687 25.335213485601212 a46.979504142808565,46.979504142808565 0 0,0 -0.7879974765568659,0.17174038241163486 l -5.314161249345686 -25.430185326146564" fill="#c0ff1e" stroke="none" /><path d="M 104.29559338865022 120.5559693870025 l 3.2191372600632358 15.404737130208703 a36.73749569499411,36.73749569499411 0 0,0 -0.6184206590938902,0.12370145169945536 l -2.9542201154383867 -15.45772797857102" fill="#ffbf11" stroke="none" /><path d="M 103.94208987418118 120.62667999033965 l 2.9861332842649975 15.624711163093394 a36.90750108978436,36.90750108978436 0 0,0 -0.6233242241891913,0.1135904376696643 l -2.7174743265247487 -15.673669774694423" fill="#ffc212" stroke="none" /><path d="M 103.58742460773223 120.69131181640829 l 5.952934556421949 34.33494459064392 a55.84717850666867,55.84717850666867 0 0,0 -0.9460046564682368,0.15566470622485196 l -5.36265239690064 -34.43207529536445" fill="#5fff29" stroke="none" /><path d="M 102.875027216393 120.80226474461374 l 0.317725032387778 2.298900059810107 a23.320752180048686,23.320752180048686 0 0,0 -0.39703267212173593,0.051403828277172346 l -0.27821453837526666 -2.304015484287674" fill="#ff0500" stroke="none" /><path d="M 102.51750503828377 120.84855314841334 l 1.5790854985215776 13.077093170093212 a34.172087032469065,34.172087032469065 0 0,0 -0.5829824738622166,0.06532440218133684 l -1.3543671230585617 -13.10227333278152" fill="#ff9e0e" stroke="none" /><path d="M 102.15924093988457 120.88869738790638 l 1.6117829734652818 15.592538176631699 a36.675620917312,36.675620917312 0 0,0 -0.626804588588045,0.059359046225561866 l -1.3438788214922215 -15.617908978362445" fill="#ffbf11" stroke="none" /><path d="M 101.80034050326958 120.92268563240118 l 0.3926203346762518 4.562843429007333 a25.579704235519657,25.579704235519657 0 0,0 -0.43781613365357086,0.03388973768753528 l -0.3142352062474451 -4.568910933689922" fill="#ff2603" stroke="none" /><path d="M 101.44090949804482 120.95050786540614 l 0.8001885076598824 11.634565284137327 a32.66205003413398,32.66205003413398 0 0,0 -0.5596963417007201,0.033669942068093345 l -0.6003478138266971 -11.646587204030112" fill="#ff890c" stroke="none" /><path d="M 101.08105385017728 120.97215588758144 l 1.0382273720777289 20.141333653635723 a41.16807470789441,41.16807470789441 0 0,0 -0.7060799997830521,0.030322113265935115 l -0.692321611693847 -20.15618833532749" fill="#fff817" stroke="none" /><path d="M 100.72087961077811 120.9876233191556 l 0.26723365150055906 7.780216185948671 a28.784804282998515,28.784804282998515 0 0,0 -0.4939838200320044,0.012723270922782122 l -0.13363651739781077 -7.783657174221498" fill="#ff5407" stroke="none" /><line stroke="#e1ed5e" stroke-width="0.3" x1="101.45913802915013" x2="101.54496967792366" y1="184.9874750549273" y2="189.98673829345242" /><path d="M 101.47630435890484 185.9873277026323 a86.0,86.0 0 0,1 -42.54439059252881,-10.42667462771756" fill="none" id="id19" stroke="none" /><text fill="#e1ed5e" style="font-size:6.75px; font-family:Arial;" text-anchor="middle"><textPath startOffset="22.145653131862474" xlink:href="#id19">July</textPath></text><path d="M 100.36049292484886 120.99690560180557 l 0.27041311698431725 15.75020839366066 a36.7525295650437,36.7525295650437 0 0,0 -0.6309060418331676,0.005415569577475567 l -1.9291284910304816e-15 -15.752529565043702" fill="#ffc011" stroke="none" /><path d="M 100.0 121.0 l 1.9330703707295626e-15 15.784717455477299 a36.7847174554773,36.7847174554773 0 0,0 -0.631458589774459,-0.0054203125370013 l 0.27096566492560487 -15.782391541134732" fill="#ffc011" stroke="none" /><path d="M 99.63950707515114 120.99690560180557 l -0.4023580288850918 23.435338028259753 a44.43879178802111,44.43879178802111 0 0,0 -0.7626261380564366,-0.019642544095181094 l 0.8045974810122724 -23.424977766814525" fill="#deff1b" stroke="none" /><path d="M 99.27912038922189 120.98762331915562 l -0.5004113098524087 14.568929289720721 a35.57752078125463,35.57752078125463 0 0,0 -0.6101955470045828,-0.02620442229822463 l 0.7504326174578303 -14.55819229899667" fill="#ffb010" stroke="none" /><path d="M 98.91894614982273 120.97215588758144 l -1.207732099771474 23.42968008734265 a44.46078698211207,44.46078698211207 0 0,0 -0.7618793001975825,-0.04583276678668661 l 1.609755752101503 -23.40549534273127" fill="#deff1b" stroke="none" /><path d="M 98.55909050195518 120.95050786540614 l -2.3826086074014268 34.6426062409058 a55.72444370956155,55.72444370956155 0 0,0 -0.9537663246723085,-0.07382754556944944 l 2.9769439268489712 -34.596600928341296" fill="#60ff29" stroke="none" /><path d="M 97.84075906011543 120.88869738790638 l -1.5982037056478828 15.461171078617056 a36.54355384739961,36.54355384739961 0 0,0 -0.6234401605448221,-0.06985777036078174 l 1.8633797677935042 -15.431457547749304" fill="#ffbd11" stroke="none" /><path d="M 97.48249496171623 120.84855314841334 l -2.144384720252469 17.75858166357708 a38.88758252337046,38.88758252337046 0 0,0 -0.6620558669122333,-0.0857163867920074 l 2.4489184090554965 -17.719153680584675" fill="#ffdb14" stroke="none" /><path d="M 97.12497278360702 120.80226474461374 l -3.450910542829214 24.969069618748183 a46.20641230323156,46.20641230323156 0 0,0 -0.7847936775477564,-0.11533764474498633 l 3.8790293259846553 -24.906150900704315" fill="#c9ff1d" stroke="none" /><path d="M 96.76829788921471 120.74984581791261 l -3.1544210751121673 20.25364613121679 a41.49781827238364,41.49781827238364 0 0,0 -0.702938453985834,-0.11566825510391356 l 3.501637032151065 -20.19651187761721" fill="#fffc17" stroke="none" /><path d="M 96.41257539226777 120.69131181640829 l -3.4600150409328716 19.956447292884413 a41.25417222789308,41.25417222789308 0 0,0 -0.6967343802541084,-0.1269682135256504 l 3.8020841547380373 -19.894110905427397" fill="#fff917" stroke="none" /><line stroke="#e1ed5e" stroke-width="0.3" x1="58.13341422392154" x2="55.67067388415222" y1="173.97424548756322" y2="178.32567169271397" /><path d="M 57.64086615596768 174.84453072859336 a86.0,86.0 0 0,1 -31.369924170532247,-30.572349798747897" fill="none" id="id20" stroke="none" /><text fill="#e1ed5e" style="font-size:6.75px; font-family:Arial;" text-anchor="middle"><textPath startOffset="22.145653131862474" xlink:href="#id20">August</textPath></text><line stroke="#e1ed5e" stroke-width="0.3" x1="26.387840678322732" x2="22.057713659400548" y1="142.50000000000003" y2="145.00000000000006" /><path d="M 25.521815274538298 143.00000000000003 a86.0,86.0 0 0,1 -11.493303480769221,-40.785679425670985" fill="none" id="id21" stroke="none" /><text fill="#e1ed5e" style="font-size:6.75px; font-family:Arial;" text-anchor="middle"><textPath startOffset="21.40746469413373" xlink:href="#id21">September</textPath></text><line stroke="#e1ed5e" stroke-width="0.3" x1="15.003131293944662" x2="10.003315487706104" y1="100.72959589197737" y2="100.7725132973878" /><path d="M 14.003168132696942 100.73817937305945 a86.0,86.0 0 0,1 10.791469493833604,-42.45332614584628" fill="none" id="id22" stroke="none" /><text fill="#e1ed5e" style="font-size:6.75px; font-family:Arial;" text-anchor="middle"><textPath startOffset="22.145653131862435" xlink:href="#id22">October</textPath></text><line stroke="#e1ed5e" stroke-width="0.3" x1="26.387840678322718" x2="22.05771365940052" y1="57.49999999999999" y2="54.99999999999999" /><path d="M 25.521815274538284 56.99999999999999 a86.0,86.0 0 0,1 29.574782752854787,-30.34633250058573" fill="none" id="id23" stroke="none" /><text fill="#e1ed5e" style="font-size:6.75px; font-family:Arial;" text-anchor="middle"><textPath startOffset="21.40746469413373" xlink:href="#id23">November</textPath></text><line stroke="#e1ed5e" stroke-width="0.3" x1="56.869717070023135" x2="54.33264160355391" y1="26.7553504044142" y2="22.446841604673864" /><path d="M 56.362301976729285 25.89364864446614 a86.0,86.0 0 0,1 42.16139366436587,-11.88097634709845" fill="none" id="id24" stroke="none" /><text fill="#e1ed5e" style="font-size:6.75px; font-family:Arial;" text-anchor="middle"><textPath startOffset="22.145653131862474" xlink:href="#id24">December</textPath></text></svg>